Coordinates
version=1
nRows=16
nColumns=36
inDegrees=yes

Units are S.I. units (second, meters, Newtons, ...)
If the header above contains a line with 'inDegrees', this indicates whether rotational values are in degrees (yes) or radians (no).

endheader
time	pelvis_tilt	pelvis_list	pelvis_rotation	pelvis_tx	pelvis_ty	pelvis_tz	hip_flexion_r	hip_adduction_r	hip_rotation_r	knee_angle_r	knee_angle_r_beta	ankle_angle_r	subtalar_angle_r	mtp_angle_r	hip_flexion_l	hip_adduction_l	hip_rotation_l	knee_angle_l	knee_angle_l_beta	ankle_angle_l	subtalar_angle_l	mtp_angle_l	lumbar_extension	lumbar_bending	lumbar_rotation	arm_flex_r	arm_add_r	arm_rot_r	elbow_flex_r	pro_sup_r	arm_flex_l	arm_add_l	arm_rot_l	elbow_flex_l	pro_sup_l
      0.00000000	     -2.55665941	      1.47863261	    -18.79231895	      1.00616610	      0.93252734	      0.10709210	      2.60159989	     -2.14164342	     -1.15064105	      2.42789326	      0.04237473	      1.01648849	     -5.13234396	     -6.15148484	     -0.62861378	     -2.88486773	     -3.79140614	      1.55846333	      0.02720032	      4.82204640	     -2.11497766	     -6.15148484	     -1.20327482	     -0.78226896	      1.92789109	     43.78499363	     -9.99660571	     45.47658322	    125.66514222	     63.67663065	     44.38393152	      4.50140481	     76.57810693	    129.52559749	     72.80683108
      0.01666670	     -1.99851953	      1.36322316	    -18.95695320	      1.00624515	      0.93111594	      0.10577133	      1.95320139	     -2.22996091	     -2.01271104	      2.08053465	      0.03631218	      2.42019445	     -4.19937936	     -6.80025746	     -1.17808092	     -2.80758757	     -4.40135057	      1.46316436	      0.02553704	      5.66915289	     -2.59793704	     -6.80025746	     -3.92003608	     -0.44275232	      4.22448110	     45.62263613	    -13.74376365	     51.24053650	    134.42593135	     82.08237701	     47.16092144	      4.57931721	     74.49805644	    132.98878565	     88.64180574
      0.03333330	     -2.30651304	      1.41138746	    -18.85120004	      1.01099676	      0.93098343	      0.10225968	      2.12956065	     -2.22835864	     -2.45418285	      2.05502757	      0.03586700	      2.27884407	     -4.45758274	     -6.80769681	     -1.06413616	     -2.78208199	     -4.30258231	      1.20417261	      0.02101678	      6.24912689	     -2.26763746	     -6.80769681	     -3.51724020	     -0.21523389	      3.42371285	     45.68503798	    -12.54994554	     51.21407117	    135.12841458	     82.44805184	     47.51595108	      4.43386535	     73.08443461	    132.39102834	     88.95944791
      0.05000000	     -2.72588088	      1.57505856	    -18.25510994	      1.01117198	      0.92963021	      0.10185209	      2.55829222	     -2.31054600	     -3.62594019	      2.21588408	      0.03867447	      2.66875314	     -4.38089673	     -7.07125099	     -0.51925720	     -2.74857078	     -4.37484733	      1.24034832	      0.02164816	      6.90480418	     -1.46513559	     -7.07125099	     -2.88614880	      0.18550103	      1.13211259	     46.40542689	    -10.20101682	     52.44269783	    133.16341848	     92.11832812	     46.26735011	      3.12018203	     70.13279560	    133.36365192	     97.91707747
      0.06666670	     -2.81514288	      1.67367623	    -17.87570674	      1.01150778	      0.92945100	      0.10169940	      2.67986046	     -2.37245878	     -4.32492509	      2.48847480	      0.04343208	      3.20265611	     -4.64460370	     -7.27148283	     -0.30692763	     -2.67392251	     -4.39956416	      1.36005347	      0.02373741	      7.27773850	     -1.00954959	     -7.27148283	     -2.71889374	      0.10695779	      0.48500255	     46.01029231	     -9.59663020	     53.66216361	    132.45828905	     85.83040599	     46.12190198	      2.97246605	     70.14969478	    133.07532483	     90.34963147
      0.08333330	     -3.15382251	      1.90486794	    -17.81787434	      1.01178441	      0.92870877	      0.10189362	      3.24711672	     -2.48007539	     -4.54089995	      2.89610957	      0.05054665	      3.68203178	     -5.13447709	     -7.37157363	      0.23056861	     -2.59238722	     -4.89796969	      1.58443443	      0.02765360	      7.61485473	     -0.09943075	     -7.37157363	     -2.34395876	      0.18459011	      0.12570671	     45.83168871	     -8.72854907	     53.82046652	    131.75321992	     95.28957383	     45.72772253	      2.75137118	     69.02081049	    133.54258118	     96.84917499
      0.10000000	     -3.29006576	      2.03310141	    -17.80205281	      1.01209236	      0.92856057	      0.10224571	      3.51388442	     -2.51757735	     -4.59712004	      3.14696620	      0.05492492	      4.01310520	     -5.46167118	     -7.43369164	      0.47713343	     -2.53969718	     -5.19494218	      1.72017006	      0.03002263	      7.63518364	      0.52528824	     -7.43369164	     -2.16863176	      0.23124429	     -0.02771861	     45.67892903	     -8.26649991	     54.26520075	    131.32313537	     95.21082625	     45.50446565	      2.67126218	     68.47797938	    133.90041417	     95.08279896
      0.11666670	     -3.38215622	      2.11652903	    -17.74860606	      1.01220313	      0.92835368	      0.10239767	      3.64699471	     -2.54701298	     -4.64841767	      3.28552313	      0.05734320	      4.28305391	     -5.58852212	     -7.47014265	      0.65848107	     -2.52853203	     -5.35571669	      1.81675641	      0.03170838	      7.55038401	      0.98197711	     -7.47014265	     -2.06913957	      0.28423324	     -0.11497986	     45.55850318	     -7.99709421	     54.50483904	    131.02916329	     94.68443865	     45.33938252	      2.61681966	     68.11972735	    134.21450673	     93.97741944
      0.13333330	     -3.38458479	      2.15207795	    -17.75031574	      1.01243155	      0.92857933	      0.10262228	      3.66548682	     -2.56003723	     -4.58805073	      3.36300896	      0.05869558	      4.50769433	     -5.67036523	     -7.48425750	      0.70927523	     -2.52316862	     -5.39783506	      1.88303072	      0.03286509	      7.33131695	      1.12981716	     -7.48425750	     -2.13248761	      0.32878441	     -0.09616928	     45.63472342	     -7.52636857	     54.47921220	    130.84982795	     94.03820112	     45.24322412	      2.33829612	     67.92383187	    134.56729667	     92.83966612
      0.15000000	     -3.40770381	      2.15066085	    -17.72121500	      1.01237339	      0.92843096	      0.10269917	      3.65187278	     -2.51208713	     -4.54958857	      3.34174184	      0.05832440	      4.65265686	     -5.84007760	     -7.49109149	      0.77040542	     -2.57225903	     -5.45079656	      1.90929119	      0.03332342	      7.13727125	      1.14992265	     -7.49109149	     -2.18886568	      0.38047965	      0.07900045	     45.62747528	     -7.41680688	     54.49518820	    130.79974766	     93.39871223	     45.29377435	      2.53654420	     67.95163384	    134.72898689	     91.85435411
      0.16666670	     -3.39408906	      2.12265115	    -17.65623174	      1.01248124	      0.92855091	      0.10274870	      3.59157436	     -2.44540846	     -4.60234912	      3.31402993	      0.05784073	      4.77291360	     -5.91435178	     -7.49289274	      0.78494222	     -2.63994635	     -5.61778515	      1.92685769	      0.03363001	      7.01261605	      1.41255666	     -7.49289274	     -2.28550151	      0.39960592	      0.20492485	     45.58135248	     -7.39943552	     54.65079803	    130.84185747	     91.10200700	     45.37022602	      2.76443959	     68.11009268	    134.77962310	     89.43716623
      0.18333330	     -3.37702761	      2.09811438	    -17.61485204	      1.01241048	      0.92843809	      0.10262269	      3.55282535	     -2.40654742	     -4.71850967	      3.28873604	      0.05739927	      4.93698552	     -5.89168310	     -7.49559806	      0.78990182	     -2.68210483	     -5.63783915	      1.93656302	      0.03379940	      6.81573990	      1.39970716	     -7.49559806	     -2.41787202	      0.42854519	      0.30885477	     45.52973716	     -7.37496222	     54.47398486	    130.87979387	     92.62717212	     45.33961690	      2.92675229	     68.09901837	    134.75804498	     90.29602322
      0.20000000	     -3.32061551	      2.04779435	    -17.57361627	      1.01234930	      0.92891867	      0.10256083	      3.44649812	     -2.36965332	     -4.85887246	      3.25287966	      0.05677346	      5.06289771	     -5.98610975	     -7.49761297	      0.73933626	     -2.73321090	     -5.54431609	      1.94092565	      0.03387554	      6.53197964	      1.16289928	     -7.49761297	     -2.57773590	      0.45253977	      0.41955665	     45.50530202	     -7.43351865	     54.37710676	    130.98796182	     91.88061287	     45.45555385	      3.06201808	     68.23754544	    134.74192030	     89.52405364
      0.21666670	     -3.26251318	      2.02001490	    -17.56986984	      1.01223015	      0.92894921	      0.10256121	      3.34445472	     -2.34190720	     -4.78132733	      3.19053894	      0.05568541	      5.08913126	     -6.25877838	     -7.49839702	      0.68751425	     -2.78264599	     -5.63595205	      1.92056975	      0.03352027	      6.36188609	      1.21529833	     -7.49839702	     -2.69732229	      0.44139094	      0.55226177	     45.53473957	     -7.43110208	     54.27259852	    131.21566591	     90.65903708	     45.67040075	      3.41633331	     68.60451832	    134.62652976	     88.32648597
      0.23333330	     -3.23325140	      1.95922873	    -17.50556619	      1.01221381	      0.92900129	      0.10243644	      3.27545905	     -2.29795344	     -5.03146660	      3.15586297	      0.05508020	      5.23263923	     -6.08979713	     -7.49910274	      0.66288849	     -2.85500402	     -5.65068713	      1.90027828	      0.03316611	      6.17413728	      1.23474246	     -7.49910274	     -2.82113901	      0.53380296	      0.56221084	     45.60948157	     -7.38565458	     54.04207222	    131.33018754	     91.97202795	     45.71729614	      3.63864841	     68.80199599	    134.49231522	     89.13500205
      0.25000000	     -3.18493020	      1.91210597	    -17.48262828	      1.01203260	      0.92891496	      0.10227261	      3.20475821	     -2.26571089	     -5.09920976	      3.13315732	      0.05468391	      5.30365616	     -6.12468936	     -7.49957523	      0.60224209	     -2.91013037	     -5.60899788	      1.85973117	      0.03245843	      6.03337653	      1.19649061	     -7.49957523	     -2.98608547	      0.58676067	      0.56773369	     45.58480254	     -7.48779808	     54.23188118	    131.28087207	     91.81466894	     45.72299274	      3.60922214	     68.77263152	    134.00010087	     89.19775647
